<mxfile host="app.diagrams.net" modified="2023-06-03T12:10:10.427Z" agent="Mozilla/5.0 (Macintosh; Intel Mac OS X 10_15_7) AppleWebKit/537.36 (KHTML, like Gecko) Chrome/112.0.0.0 Safari/537.36" etag="BiFVEbuu4aiL6J3-ZqZz" version="21.3.6" type="github">
  <diagram name="Page-1" id="e7e014a7-5840-1c2e-5031-d8a46d1fe8dd">
    <mxGraphModel dx="954" dy="559" grid="1" gridSize="10" guides="1" tooltips="1" connect="1" arrows="1" fold="1" page="1" pageScale="1" pageWidth="1169" pageHeight="826" background="none" math="0" shadow="0">
      <root>
        <mxCell id="0" />
        <mxCell id="1" parent="0" />
        <mxCell id="2" value="Bin" style="swimlane;whiteSpace=wrap" parent="1" vertex="1">
          <mxGeometry x="152" y="128" width="292.5" height="570" as="geometry" />
        </mxCell>
        <mxCell id="8" value="Bin Address" style="" parent="2" vertex="1">
          <mxGeometry x="60" y="182" width="110" height="50" as="geometry" />
        </mxCell>
        <mxCell id="10" value="Calculate Weight" style="" parent="2" vertex="1">
          <mxGeometry x="60" y="278" width="110" height="50" as="geometry" />
        </mxCell>
        <mxCell id="11" value="" style="endArrow=open;strokeColor=#FF0000;endFill=1;rounded=0" parent="2" source="8" target="10" edge="1">
          <mxGeometry relative="1" as="geometry" />
        </mxCell>
        <mxCell id="FJGPi0rjOxeEnpevbPiM-47" value="" style="endArrow=open;strokeColor=#FF0000;endFill=1;rounded=0" edge="1" parent="2">
          <mxGeometry relative="1" as="geometry">
            <mxPoint x="114.5" y="328" as="sourcePoint" />
            <mxPoint x="114.5" y="381" as="targetPoint" />
          </mxGeometry>
        </mxCell>
        <mxCell id="FJGPi0rjOxeEnpevbPiM-48" value="Is Full" style="rhombus;whiteSpace=wrap;html=1;" vertex="1" parent="2">
          <mxGeometry x="60" y="382" width="110" height="48" as="geometry" />
        </mxCell>
        <mxCell id="FJGPi0rjOxeEnpevbPiM-49" value="False" style="edgeStyle=elbowEdgeStyle;elbow=horizontal;align=left;verticalAlign=top;endArrow=open;endSize=8;strokeColor=#FF0000;endFill=1;rounded=0" edge="1" parent="2">
          <mxGeometry x="-0.5844" y="1" relative="1" as="geometry">
            <mxPoint x="115" y="472" as="targetPoint" />
            <mxPoint x="114.5" y="434" as="sourcePoint" />
            <Array as="points">
              <mxPoint x="114.5" y="491" />
            </Array>
            <mxPoint as="offset" />
          </mxGeometry>
        </mxCell>
        <mxCell id="FJGPi0rjOxeEnpevbPiM-52" value="" style="endArrow=classic;html=1;rounded=0;strokeColor=#FF0000;" edge="1" parent="2">
          <mxGeometry width="50" height="50" relative="1" as="geometry">
            <mxPoint x="172" y="406" as="sourcePoint" />
            <mxPoint x="198" y="406" as="targetPoint" />
          </mxGeometry>
        </mxCell>
        <mxCell id="FJGPi0rjOxeEnpevbPiM-53" value="Full" style="ellipse;whiteSpace=wrap;html=1;" vertex="1" parent="2">
          <mxGeometry x="200" y="385" width="64" height="42" as="geometry" />
        </mxCell>
        <mxCell id="FJGPi0rjOxeEnpevbPiM-54" value="In Use" style="ellipse;whiteSpace=wrap;html=1;" vertex="1" parent="2">
          <mxGeometry x="83" y="472" width="64" height="42" as="geometry" />
        </mxCell>
        <mxCell id="FJGPi0rjOxeEnpevbPiM-56" value="True" style="text;html=1;strokeColor=none;fillColor=none;align=center;verticalAlign=middle;whiteSpace=wrap;rounded=0;" vertex="1" parent="2">
          <mxGeometry x="150" y="382" width="60" height="30" as="geometry" />
        </mxCell>
        <mxCell id="3" value="Users" style="swimlane;whiteSpace=wrap" parent="1" vertex="1">
          <mxGeometry x="445" y="128" width="280" height="570" as="geometry" />
        </mxCell>
        <mxCell id="15" value="Login In" style="" parent="3" vertex="1">
          <mxGeometry x="83.5" y="132" width="110" height="50" as="geometry" />
        </mxCell>
        <mxCell id="18" value="Credit Accumulation" style="" parent="3" vertex="1">
          <mxGeometry x="85" y="278" width="110" height="50" as="geometry" />
        </mxCell>
        <mxCell id="FJGPi0rjOxeEnpevbPiM-43" value="" style="endArrow=classic;html=1;rounded=0;fillColor=#a20025;strokeColor=#FF0000;" edge="1" parent="3">
          <mxGeometry width="50" height="50" relative="1" as="geometry">
            <mxPoint x="193.5" y="134.5" as="sourcePoint" />
            <mxPoint x="355" y="134.5" as="targetPoint" />
          </mxGeometry>
        </mxCell>
        <mxCell id="FJGPi0rjOxeEnpevbPiM-61" value="" style="edgeStyle=orthogonalEdgeStyle;rounded=0;orthogonalLoop=1;jettySize=auto;html=1;strokeColor=#FF0000;" edge="1" parent="3" source="FJGPi0rjOxeEnpevbPiM-57" target="15">
          <mxGeometry relative="1" as="geometry" />
        </mxCell>
        <mxCell id="FJGPi0rjOxeEnpevbPiM-57" value="User" style="shape=umlActor;verticalLabelPosition=bottom;verticalAlign=top;html=1;outlineConnect=0;" vertex="1" parent="3">
          <mxGeometry x="45" y="42" width="30" height="60" as="geometry" />
        </mxCell>
        <mxCell id="4" value="School" style="swimlane;whiteSpace=wrap" parent="1" vertex="1">
          <mxGeometry x="724.5" y="128" width="280" height="570" as="geometry" />
        </mxCell>
        <mxCell id="FJGPi0rjOxeEnpevbPiM-44" value="Show Map" style="" vertex="1" parent="4">
          <mxGeometry x="75.5" y="112" width="110" height="50" as="geometry" />
        </mxCell>
        <mxCell id="FJGPi0rjOxeEnpevbPiM-45" value="" style="edgeStyle=elbowEdgeStyle;elbow=horizontal;strokeColor=#FF0000;endArrow=open;endFill=1;rounded=0;entryX=1;entryY=0.5;entryDx=0;entryDy=0;" edge="1" parent="4" target="8">
          <mxGeometry width="100" height="100" relative="1" as="geometry">
            <mxPoint x="136.5" y="164" as="sourcePoint" />
            <mxPoint x="-10" y="249" as="targetPoint" />
            <Array as="points">
              <mxPoint x="136" y="219" />
            </Array>
          </mxGeometry>
        </mxCell>
        <mxCell id="20" value="" style="endArrow=open;strokeColor=#FF0000;endFill=1;rounded=0" parent="1" source="10" target="18" edge="1">
          <mxGeometry relative="1" as="geometry" />
        </mxCell>
      </root>
    </mxGraphModel>
  </diagram>
</mxfile>
